<?xml version="1.0" encoding="UTF-8" standalone="no"?>
<!-- Generator: Adobe Illustrator 17.1.0, SVG Export Plug-In . SVG Version: 6.00 Build 0)  -->

<svg
   xmlns:dc="http://purl.org/dc/elements/1.1/"
   xmlns:cc="http://creativecommons.org/ns#"
   xmlns:rdf="http://www.w3.org/1999/02/22-rdf-syntax-ns#"
   xmlns:svg="http://www.w3.org/2000/svg"
   xmlns="http://www.w3.org/2000/svg"
   xmlns:sodipodi="http://sodipodi.sourceforge.net/DTD/sodipodi-0.dtd"
   xmlns:inkscape="http://www.inkscape.org/namespaces/inkscape"
   version="1.1"
   x="0px"
   y="0px"
   viewBox="0 0 435 515"
   style="enable-background:new 0 0 435 515;"
   width="435"
   height="515"
   xml:space="preserve"
   id="svg3288"
   inkscape:version="0.48.5 r10040"
   sodipodi:docname="Chipset_schematic.svg"><metadata
     id="metadata3551"><rdf:RDF><cc:Work
         rdf:about=""><dc:format>image/svg+xml</dc:format><dc:type
           rdf:resource="http://purl.org/dc/dcmitype/StillImage" /></cc:Work></rdf:RDF></metadata><defs
     id="defs3549" /><sodipodi:namedview
     pagecolor="#ffffff"
     bordercolor="#666666"
     borderopacity="1"
     objecttolerance="10"
     gridtolerance="10"
     guidetolerance="10"
     inkscape:pageopacity="0"
     inkscape:pageshadow="2"
     inkscape:window-width="1600"
     inkscape:window-height="853"
     id="namedview3547"
     showgrid="false"
     inkscape:zoom="1.8700572"
     inkscape:cx="80.969861"
     inkscape:cy="311.81748"
     inkscape:window-x="-2"
     inkscape:window-y="-3"
     inkscape:window-maximized="1"
     inkscape:current-layer="svg3288" /><style
     type="text/css"
     id="style3290">
	.st0{fill:#848778;stroke:#000;}
	.st1{fill:#E0E1CB;stroke:#000;}
	.st2{fill:#73785D;stroke:#000;}
	.st3{fill:#BFC79D;stroke:#000;}
	.st4{fill:#848778;stroke:#000;stroke-linejoin:round;}
	.st5{fill:#FF7378;stroke:#000;stroke-linejoin:round;}
	.st6{fill:#994745;stroke:#000;stroke-linejoin:round;}
	.st7{fill:#E0E1CB;stroke:#000;stroke-linejoin:round;}
	.st8{fill:#7B9ED2;stroke:#000;stroke-linejoin:round;}
	.st9{fill:#4A5E7F;stroke:#000;stroke-linejoin:round;}
	.st10{fill:#6F9951;stroke:#000;stroke-linejoin:round;}
	.st11{fill:#B7FF89;stroke:#000;stroke-linejoin:round;}
</style><g
     id="chipset"><g
       id="PCI-E"><circle
         class="st0"
         cx="46.9"
         cy="198"
         r="28.9"
         id="circle3294" /><circle
         class="st1"
         cx="36.1"
         cy="187.3"
         r="28.9"
         id="circle3296" /></g><g
       id="RAM"><circle
         class="st0"
         cx="398.6"
         cy="198"
         r="28.9"
         id="circle3299" /><circle
         class="st1"
         cx="387.9"
         cy="187.3"
         r="28.9"
         id="circle3301" /></g><g
       id="CPU"><circle
         class="st2"
         cx="217.7"
         cy="44.6"
         r="28.9"
         id="circle3304" /><circle
         class="st3"
         cx="206.9"
         cy="33.9"
         r="28.9"
         id="circle3306" /></g><g
       id="Northbridge"><polygon
         class="st4"
         points="279.6,238.6 267,227.9 267,147.4 279.6,158.6   "
         id="polygon3309" /><polygon
         class="st4"
         points="279.6,238.6 233.5,238.4 222.4,227.9 267,227.9   "
         id="polygon3311" /><polygon
         class="st4"
         points="202.9,238.6 168,238.6 157.6,227.9 202.9,227.9   "
         id="polygon3313" /><rect
         x="157.6"
         y="147.4"
         class="st1"
         width="109.4"
         height="80.5"
         id="rect3315" /></g><g
       id="channel"><rect
         x="202.9"
         y="227.9"
         class="st5"
         width="19.5"
         height="112.1"
         id="rect3318" /><polygon
         class="st6"
         points="222.4,227.9 233.5,238.4 233.7,340 222.4,340   "
         id="polygon3320" /></g><g
       id="Southbridge"><rect
         x="157.5"
         y="340"
         class="st7"
         width="112.2"
         height="80.7"
         id="rect3323" /><polygon
         class="st4"
         points="281.3,430.9 269.7,420.7 269.7,340 281,352.2   "
         id="polygon3325" /><polygon
         class="st4"
         points="281.3,430.9 168.7,430.9 157.5,420.8 269.7,420.7   "
         id="polygon3327" /></g><g
       id="PCI"><rect
         x="57"
         y="371.5"
         class="st8"
         width="37.9"
         height="20.8"
         id="rect3330" /><polygon
         class="st9"
         points="106.7,403.8 68.4,403.8 57,392.3 95,392.3   "
         id="polygon3332" /><polygon
         class="st9"
         points="106.7,403.8 95,392.3 95,371.5 106.7,383   "
         id="polygon3334" /></g><g
       id="USB"><rect
         x="84"
         y="442.3"
         class="st8"
         width="37.9"
         height="20.8"
         id="rect3337" /><polygon
         class="st9"
         points="133.7,474.7 95.3,474.7 84,463.1 121.9,463.1   "
         id="polygon3339" /><polygon
         class="st9"
         points="133.7,474.7 121.9,463.1 121.9,442.3 133.7,453.8   "
         id="polygon3341" /></g><g
       id="ISA"><rect
         x="159.5"
         y="475.8"
         class="st8"
         width="37.9"
         height="20.8"
         id="rect3344" /><polygon
         class="st9"
         points="209.2,508.1 170.9,508.1 159.5,496.6 197.5,496.6   "
         id="polygon3346" /><polygon
         class="st9"
         points="209.2,508.1 197.5,496.6 197.5,475.8 209.2,487.2   "
         id="polygon3348" /></g><g
       id="IDE"><rect
         x="233.7"
         y="475.8"
         class="st8"
         width="37.9"
         height="20.8"
         id="rect3351" /><polygon
         class="st9"
         points="283.4,508.1 245.1,508.1 233.7,496.6 271.6,496.6   "
         id="polygon3353" /><polygon
         class="st9"
         points="283.4,508.1 271.6,496.6 271.6,475.8 283.4,487.2   "
         id="polygon3355" /></g><g
       id="bios"><rect
         x="318.6"
         y="444.8"
         class="st8"
         width="37.9"
         height="20.8"
         id="rect3358" /><polygon
         class="st9"
         points="368.3,477.1 329.9,477.1 318.6,465.6 356.5,465.6   "
         id="polygon3360" /><polygon
         class="st9"
         points="368.3,477.1 356.5,465.6 356.5,444.8 368.3,456.3   "
         id="polygon3362" /></g><g
       id="legacy"><rect
         x="344.5"
         y="377.2"
         class="st8"
         width="53.5"
         height="20.8"
         id="rect3365" /><polygon
         class="st9"
         points="409.8,409.5 355.9,409.5 344.5,398 398,398   "
         id="polygon3367" /><polygon
         class="st9"
         points="409.8,409.5 398,398 398,377.2 409.8,388.6   "
         id="polygon3369" /></g><g
       id="left_grey_arrow"><polygon
         class="st4"
         points="147.7,198 142.1,209.1 130.2,197 136.4,186.6   "
         id="polygon3372" /><polygon
         class="st7"
         points="136.4,186.6 130.2,176.2 130.1,181.2 93.7,181.2 93.8,176.2 87.4,186.6 93.8,197 93.7,192 130.1,192     130.2,197   "
         id="polygon3374" /><polygon
         class="st4"
         points="147.7,198 136.4,186.6 130.2,176.2 142.8,189.8   "
         id="polygon3376" /><polygon
         class="st4"
         points="103.8,208.5 93.8,197 93.7,192 104,203.5   "
         id="polygon3378" /><polygon
         class="st4"
         points="136.7,203.6 104,203.5 93.7,192 130.1,192 130.2,197   "
         id="polygon3380" /><polygon
         class="st4"
         points="97.9,181.2 93.7,181.2 93.8,176.2   "
         id="polygon3382" /></g><g
       id="right_grey_arrow"><polygon
         class="st4"
         points="348.2,198 342.6,209.1 330.7,197 336.9,186.6   "
         id="polygon3385" /><polygon
         class="st7"
         points="336.9,186.6 330.7,176.2 330.6,181.2 294.2,181.2 294.3,176.2 287.9,186.6 294.3,197 294.2,192     330.6,192 330.7,197   "
         id="polygon3387" /><polygon
         class="st4"
         points="348.2,198 336.9,186.6 330.7,176.2 343.3,189.8   "
         id="polygon3389" /><polygon
         class="st4"
         points="304.3,208.5 294.3,197 294.2,192 304.5,203.5   "
         id="polygon3391" /><polygon
         class="st4"
         points="337.2,203.6 304.5,203.5 294.2,192 330.6,192 330.7,197   "
         id="polygon3393" /><polygon
         class="st4"
         points="298.4,181.2 294.2,181.2 294.3,176.2   "
         id="polygon3395" /></g><g
       id="Green_arrow"><polygon
         class="st10"
         points="206.2,132.2 216.6,125.9 227.5,137.5 216.9,143.7   "
         id="polygon3398" /><polygon
         class="st11"
         points="206.2,79.3 195.8,85.5 200.8,85.6 200.8,126 195.8,125.9 206.2,132.2 216.6,125.9 211.7,126     211.7,85.6 216.6,85.5   "
         id="polygon3400" /><polygon
         class="st10"
         points="195.8,125.9 206.6,137.9 216.9,143.7 206.2,132.2   "
         id="polygon3402" /><polygon
         class="st10"
         points="223.1,96.5 211.7,85.6 216.6,85.5 228.8,96.5   "
         id="polygon3404" /><polygon
         class="st10"
         points="223.2,133 223.1,96.5 211.7,85.6 211.7,126 216.6,125.9   "
         id="polygon3406" /><polygon
         class="st10"
         points="196.6,85.6 200.8,85.6 200.8,90.6   "
         id="polygon3408" /></g></g><g
     id="outline"><g
       id="g3411"><path
         d="M236.9,104h6.2v1.2h-4.7v3.8h4.3v1.2h-4.3v5.2h-1.5V104z"
         id="path3413" /><path
         d="M245,113.6c0.7,0.4,1.6,0.7,2.6,0.7c1.5,0,2.4-0.8,2.4-2c0-1.1-0.6-1.7-2.2-2.3c-1.9-0.7-3-1.7-3-3.3    c0-1.8,1.5-3.1,3.7-3.1c1.2,0,2,0.3,2.5,0.6l-0.4,1.2c-0.4-0.2-1.1-0.5-2.2-0.5c-1.6,0-2.2,0.9-2.2,1.7c0,1.1,0.7,1.6,2.3,2.2    c1.9,0.7,2.9,1.7,2.9,3.4c0,1.8-1.3,3.3-4,3.3c-1.1,0-2.3-0.3-2.9-0.7L245,113.6z"
         id="path3415" /><path
         d="M253.6,104.1c0.6-0.2,1.7-0.3,2.7-0.3c1.5,0,2.4,0.3,3.1,0.8c0.6,0.4,1,1.1,1,2c0,1.1-0.7,2.1-1.9,2.5v0.1    c1.1,0.3,2.4,1.2,2.4,2.9c0,1-0.4,1.8-1,2.3c-0.8,0.7-2.1,1.1-3.9,1.1c-1,0-1.8-0.1-2.3-0.1V104.1z M255.1,108.8h1.3    c1.5,0,2.5-0.8,2.5-1.9c0-1.3-1-1.9-2.5-1.9c-0.7,0-1.1,0.1-1.3,0.1V108.8z M255.1,114.3c0.3,0.1,0.7,0.1,1.2,0.1    c1.5,0,2.9-0.6,2.9-2.2c0-1.5-1.3-2.2-3-2.2h-1.2V114.3z"
         id="path3417" /></g><g
       id="g3419"><path
         d="M199.9,39.6c-0.7,0.3-2,0.7-3.7,0.7c-4,0-7-2.5-7-7.2c0-4.5,3-7.4,7.4-7.4c1.7,0,2.9,0.4,3.4,0.6l-0.5,1.5    c-0.7-0.3-1.7-0.6-2.8-0.6c-3.3,0-5.5,2.1-5.5,5.8c0,3.5,2,5.7,5.4,5.7c1.1,0,2.3-0.2,3-0.6L199.9,39.6z"
         id="path3421" /><path
         d="M202.2,26.1c0.9-0.1,2-0.3,3.5-0.3c1.8,0,3.1,0.4,4,1.2c0.8,0.7,1.2,1.7,1.2,3c0,1.3-0.4,2.3-1.1,3c-1,1-2.5,1.6-4.3,1.6    c-0.5,0-1.1,0-1.5-0.1v5.7h-1.8V26.1z M204.1,32.9c0.4,0.1,0.9,0.1,1.5,0.1c2.2,0,3.5-1.1,3.5-3c0-1.9-1.3-2.8-3.3-2.8    c-0.8,0-1.4,0.1-1.7,0.1V32.9z"
         id="path3423" /><path
         d="M215.2,25.9v8.4c0,3.1,1.4,4.5,3.3,4.5c2.1,0,3.4-1.4,3.4-4.5v-8.4h1.8v8.3c0,4.3-2.3,6.1-5.4,6.1c-2.9,0-5.1-1.6-5.1-6    v-8.3H215.2z"
         id="path3425" /></g><g
       id="g3427" /><g
       id="g3435"><path
         d="M369,179.5c0.9-0.2,2.3-0.3,3.5-0.3c2,0,3.2,0.4,4.1,1.2c0.7,0.6,1.1,1.6,1.1,2.7c0,1.8-1.2,3.1-2.6,3.6v0.1    c1.1,0.4,1.7,1.4,2.1,2.9c0.5,2,0.8,3.3,1.1,3.9h-1.9c-0.2-0.4-0.5-1.6-0.9-3.4c-0.4-2-1.2-2.7-2.9-2.8h-1.7v6.1H369V179.5z     M370.8,185.9h1.9c2,0,3.2-1.1,3.2-2.7c0-1.8-1.3-2.6-3.3-2.6c-0.9,0-1.5,0.1-1.8,0.1V185.9z"
         id="path3437" /><path
         d="M382.7,189l-1.5,4.5h-1.9l4.8-14.2h2.2l4.8,14.2h-2l-1.5-4.5H382.7z M387.3,187.5l-1.4-4.1c-0.3-0.9-0.5-1.8-0.7-2.6h0    c-0.2,0.8-0.4,1.7-0.7,2.6l-1.4,4.1H387.3z"
         id="path3439" /><path
         d="M405.1,187.2c-0.1-2-0.2-4.4-0.2-6.1h0c-0.5,1.6-1.1,3.4-1.8,5.4l-2.5,6.9h-1.4l-2.3-6.7c-0.7-2-1.2-3.8-1.6-5.5h0    c0,1.8-0.1,4.1-0.3,6.3l-0.4,6.1h-1.7l1-14.2h2.3l2.4,6.8c0.6,1.7,1,3.3,1.4,4.8h0c0.4-1.4,0.9-3,1.5-4.8l2.5-6.8h2.3l0.9,14.2    h-1.8L405.1,187.2z"
         id="path3441" /></g><g
       id="g3443"><path
         d="M166.9,192.9v-12.1h1.7l3.9,6.1c0.9,1.4,1.6,2.7,2.2,3.9l0.1,0c-0.1-1.6-0.2-3.1-0.2-5v-5.1h1.5v12.1h-1.6l-3.9-6.2    c-0.8-1.4-1.7-2.7-2.3-4.1l-0.1,0c0.1,1.5,0.1,3,0.1,5v5.2H166.9z"
         id="path3445" /><path
         d="M186.5,188.5c0,3.2-2.3,4.6-4.3,4.6c-2.3,0-4.2-1.7-4.2-4.5c0-2.9,1.9-4.6,4.3-4.6C184.8,184,186.5,185.8,186.5,188.5z     M179.6,188.6c0,1.9,1.1,3.3,2.6,3.3c1.5,0,2.6-1.4,2.6-3.4c0-1.5-0.7-3.3-2.6-3.3C180.5,185.2,179.6,186.9,179.6,188.6z"
         id="path3447" /><path
         d="M188.5,186.9c0-1,0-1.9-0.1-2.7h1.4l0.1,1.7h0.1c0.4-1.2,1.4-1.9,2.4-1.9c0.2,0,0.3,0,0.4,0v1.5c-0.2,0-0.3,0-0.5,0    c-1.1,0-1.9,0.8-2.1,2c0,0.2-0.1,0.5-0.1,0.7v4.6h-1.6V186.9z"
         id="path3449" /><path
         d="M196.8,182.1v2.1h2.3v1.2h-2.3v4.7c0,1.1,0.3,1.7,1.2,1.7c0.4,0,0.7,0,0.9-0.1l0.1,1.2c-0.3,0.1-0.8,0.2-1.4,0.2    c-0.7,0-1.3-0.3-1.7-0.7c-0.4-0.5-0.6-1.3-0.6-2.3v-4.8h-1.4v-1.2h1.4v-1.6L196.8,182.1z"
         id="path3451" /><path
         d="M200.8,180.1h1.6v5.5h0c0.3-0.5,0.6-0.9,1.1-1.1c0.5-0.3,1-0.4,1.6-0.4c1.2,0,3,0.7,3,3.7v5.2h-1.6v-5    c0-1.4-0.5-2.6-2-2.6c-1,0-1.8,0.7-2.1,1.6c-0.1,0.2-0.1,0.5-0.1,0.8v5.3h-1.6V180.1z"
         id="path3453" /><path
         d="M210.8,180.1h1.6v5.5h0c0.6-1,1.6-1.6,3-1.6c2.2,0,3.7,1.8,3.7,4.4c0,3.1-2,4.7-3.9,4.7c-1.3,0-2.3-0.5-2.9-1.6h0    l-0.1,1.4h-1.4c0-0.6,0.1-1.5,0.1-2.3V180.1z M212.4,189.4c0,0.2,0,0.4,0.1,0.6c0.3,1.1,1.2,1.9,2.4,1.9c1.7,0,2.6-1.3,2.6-3.3    c0-1.7-0.9-3.2-2.6-3.2c-1.1,0-2.1,0.8-2.4,1.9c-0.1,0.2-0.1,0.4-0.1,0.7V189.4z"
         id="path3455" /><path
         d="M221,186.9c0-1,0-1.9-0.1-2.7h1.4l0.1,1.7h0.1c0.4-1.2,1.4-1.9,2.4-1.9c0.2,0,0.3,0,0.4,0v1.5c-0.2,0-0.3,0-0.5,0    c-1.1,0-1.9,0.8-2.1,2c0,0.2-0.1,0.5-0.1,0.7v4.6H221V186.9z"
         id="path3457" /><path
         d="M228.8,181.7c0,0.5-0.4,1-1,1c-0.6,0-1-0.4-1-1c0-0.5,0.4-1,1-1C228.4,180.8,228.8,181.2,228.8,181.7z M227,192.9v-8.7    h1.6v8.7H227z"
         id="path3459" /><path
         d="M238.7,180.1v10.5c0,0.8,0,1.7,0.1,2.3h-1.4l-0.1-1.5h-0.1c-0.5,1-1.5,1.7-2.9,1.7c-2.1,0-3.7-1.8-3.7-4.4    c0-2.9,1.8-4.7,3.9-4.7c1.3,0,2.2,0.6,2.6,1.3h0v-5.2H238.7z M237.2,187.7c0-0.2,0-0.5-0.1-0.7c-0.2-1-1.1-1.8-2.3-1.8    c-1.6,0-2.6,1.4-2.6,3.3c0,1.8,0.9,3.2,2.6,3.2c1.1,0,2-0.7,2.3-1.9c0.1-0.2,0.1-0.4,0.1-0.7V187.7z"
         id="path3461" /><path
         d="M248.8,191.6c0,2-0.4,3.2-1.2,4c-0.9,0.8-2.1,1-3.2,1c-1,0-2.2-0.3-2.9-0.7l0.4-1.2c0.6,0.4,1.5,0.7,2.6,0.7    c1.6,0,2.8-0.8,2.8-3.1v-1h0c-0.5,0.8-1.4,1.5-2.8,1.5c-2.2,0-3.7-1.8-3.7-4.2c0-3,1.9-4.6,3.9-4.6c1.5,0,2.3,0.8,2.7,1.5h0    l0.1-1.3h1.4c-0.1,0.6-0.1,1.3-0.1,2.4V191.6z M247.2,187.6c0-0.3,0-0.5-0.1-0.7c-0.3-0.9-1-1.7-2.2-1.7c-1.5,0-2.6,1.3-2.6,3.3    c0,1.7,0.9,3.1,2.6,3.1c1,0,1.9-0.6,2.2-1.6c0.1-0.3,0.1-0.6,0.1-0.8V187.6z"
         id="path3463" /><path
         d="M252.3,188.8c0,2.1,1.4,3,3,3c1.1,0,1.8-0.2,2.4-0.5l0.3,1.1c-0.6,0.3-1.5,0.6-2.9,0.6c-2.7,0-4.3-1.8-4.3-4.4    s1.5-4.7,4.1-4.7c2.9,0,3.6,2.5,3.6,4.1c0,0.3,0,0.6-0.1,0.7H252.3z M257,187.7c0-1-0.4-2.6-2.2-2.6c-1.6,0-2.3,1.5-2.4,2.6H257z"
         id="path3465" /></g><g
       id="g3467"><path
         d="M167.6,383.7c0.7,0.5,1.7,0.8,2.8,0.8c1.6,0,2.5-0.8,2.5-2.1c0-1.1-0.6-1.8-2.3-2.4c-2-0.7-3.2-1.8-3.2-3.5    c0-1.9,1.6-3.3,3.9-3.3c1.2,0,2.1,0.3,2.7,0.6l-0.4,1.3c-0.4-0.2-1.2-0.6-2.3-0.6c-1.7,0-2.3,1-2.3,1.8c0,1.1,0.7,1.7,2.4,2.3    c2.1,0.8,3.1,1.8,3.1,3.6c0,1.9-1.4,3.5-4.2,3.5c-1.2,0-2.4-0.4-3.1-0.8L167.6,383.7z"
         id="path3469" /><path
         d="M184.6,381.2c0,3.2-2.3,4.6-4.3,4.6c-2.3,0-4.2-1.7-4.2-4.5c0-2.9,1.9-4.6,4.3-4.6C182.9,376.8,184.6,378.6,184.6,381.2z     M177.7,381.3c0,1.9,1.1,3.3,2.6,3.3c1.5,0,2.6-1.4,2.6-3.4c0-1.5-0.7-3.3-2.6-3.3C178.5,377.9,177.7,379.7,177.7,381.3z"
         id="path3471" /><path
         d="M193.9,383.3c0,0.9,0,1.7,0.1,2.4h-1.4l-0.1-1.4h0c-0.4,0.7-1.3,1.6-2.9,1.6c-1.4,0-3-0.8-3-3.8v-5.1h1.6v4.8    c0,1.7,0.5,2.8,1.9,2.8c1.1,0,1.8-0.7,2.1-1.5c0.1-0.2,0.1-0.5,0.1-0.8v-5.3h1.6V383.3z"
         id="path3473" /><path
         d="M198.4,374.8v2.1h2.3v1.2h-2.3v4.7c0,1.1,0.3,1.7,1.2,1.7c0.4,0,0.7,0,0.9-0.1l0.1,1.2c-0.3,0.1-0.8,0.2-1.4,0.2    c-0.7,0-1.3-0.3-1.7-0.7c-0.4-0.5-0.6-1.3-0.6-2.3v-4.8h-1.4v-1.2h1.4v-1.6L198.4,374.8z"
         id="path3475" /><path
         d="M202.5,372.9h1.6v5.5h0c0.3-0.5,0.6-0.9,1.1-1.1c0.5-0.3,1-0.4,1.6-0.4c1.2,0,3,0.7,3,3.7v5.2h-1.6v-5    c0-1.4-0.5-2.6-2-2.6c-1,0-1.8,0.7-2.1,1.6c-0.1,0.2-0.1,0.5-0.1,0.8v5.3h-1.6V372.9z"
         id="path3477" /><path
         d="M212.5,372.9h1.6v5.5h0c0.6-1,1.6-1.6,3-1.6c2.2,0,3.7,1.8,3.7,4.4c0,3.1-2,4.7-3.9,4.7c-1.3,0-2.3-0.5-2.9-1.6h0    l-0.1,1.4h-1.4c0-0.6,0.1-1.5,0.1-2.3V372.9z M214,382.2c0,0.2,0,0.4,0.1,0.6c0.3,1.1,1.2,1.9,2.4,1.9c1.7,0,2.6-1.3,2.6-3.3    c0-1.7-0.9-3.2-2.6-3.2c-1.1,0-2.1,0.8-2.4,1.9c-0.1,0.2-0.1,0.4-0.1,0.7V382.2z"
         id="path3479" /><path
         d="M222.7,379.7c0-1,0-1.9-0.1-2.7h1.4l0.1,1.7h0.1c0.4-1.2,1.4-1.9,2.4-1.9c0.2,0,0.3,0,0.4,0v1.5c-0.2,0-0.3,0-0.5,0    c-1.1,0-1.9,0.8-2.1,2c0,0.2-0.1,0.5-0.1,0.7v4.6h-1.6V379.7z"
         id="path3481" /><path
         d="M230.4,374.5c0,0.5-0.4,1-1,1c-0.6,0-1-0.4-1-1s0.4-1,1-1C230,373.5,230.4,373.9,230.4,374.5z M228.7,385.6v-8.7h1.6v8.7    H228.7z"
         id="path3483" /><path
         d="M240.4,372.9v10.5c0,0.8,0,1.7,0.1,2.3h-1.4l-0.1-1.5h-0.1c-0.5,1-1.5,1.7-2.9,1.7c-2.1,0-3.7-1.8-3.7-4.4    c0-2.9,1.8-4.7,3.9-4.7c1.3,0,2.2,0.6,2.6,1.3h0v-5.2H240.4z M238.8,380.5c0-0.2,0-0.5-0.1-0.7c-0.2-1-1.1-1.8-2.3-1.8    c-1.6,0-2.6,1.4-2.6,3.3c0,1.8,0.9,3.2,2.6,3.2c1.1,0,2-0.7,2.3-1.9c0.1-0.2,0.1-0.4,0.1-0.7V380.5z"
         id="path3485" /><path
         d="M250.5,384.4c0,2-0.4,3.2-1.2,4c-0.9,0.8-2.1,1-3.2,1c-1,0-2.2-0.3-2.9-0.7l0.4-1.2c0.6,0.4,1.5,0.7,2.6,0.7    c1.6,0,2.8-0.8,2.8-3.1v-1h0c-0.5,0.8-1.4,1.5-2.8,1.5c-2.2,0-3.7-1.8-3.7-4.2c0-3,1.9-4.6,3.9-4.6c1.5,0,2.3,0.8,2.7,1.5h0    l0.1-1.3h1.4c-0.1,0.6-0.1,1.3-0.1,2.4V384.4z M248.9,380.4c0-0.3,0-0.5-0.1-0.7c-0.3-0.9-1-1.7-2.2-1.7c-1.5,0-2.6,1.3-2.6,3.3    c0,1.7,0.9,3.1,2.6,3.1c1,0,1.9-0.6,2.2-1.6c0.1-0.3,0.1-0.6,0.1-0.8V380.4z"
         id="path3487" /><path
         d="M254,381.6c0,2.1,1.4,3,3,3c1.1,0,1.8-0.2,2.4-0.5l0.3,1.1c-0.6,0.3-1.5,0.6-2.9,0.6c-2.7,0-4.3-1.8-4.3-4.4    s1.5-4.7,4.1-4.7c2.9,0,3.6,2.5,3.6,4.1c0,0.3,0,0.6-0.1,0.7H254z M258.6,380.4c0-1-0.4-2.6-2.2-2.6c-1.6,0-2.3,1.5-2.4,2.6H258.6    z"
         id="path3489" /></g><g
       id="g3491"><path
         d="M68.8,377.5c0.5-0.1,1.2-0.2,2-0.2c1,0,1.8,0.2,2.3,0.7c0.4,0.4,0.7,1,0.7,1.7c0,0.7-0.2,1.3-0.6,1.7    c-0.6,0.6-1.5,0.9-2.5,0.9c-0.3,0-0.6,0-0.8-0.1v3.2h-1V377.5z M69.8,381.4c0.2,0.1,0.5,0.1,0.9,0.1c1.3,0,2-0.6,2-1.7    c0-1.1-0.8-1.6-1.9-1.6c-0.5,0-0.8,0-1,0.1V381.4z"
         id="path3493" /><path
         d="M80.8,385.2c-0.4,0.2-1.2,0.4-2.1,0.4c-2.3,0-4-1.4-4-4.1c0-2.5,1.7-4.2,4.2-4.2c1,0,1.6,0.2,1.9,0.4l-0.3,0.9    c-0.4-0.2-0.9-0.3-1.6-0.3c-1.9,0-3.2,1.2-3.2,3.3c0,2,1.1,3.3,3.1,3.3c0.6,0,1.3-0.1,1.7-0.3L80.8,385.2z"
         id="path3495" /><path
         d="M83.2,377.4v8.1h-1.1v-8.1H83.2z"
         id="path3497" /></g><g
       id="g3499"><path
         d="M92.1,448.1v4.8c0,1.8,0.8,2.6,1.9,2.6c1.2,0,2-0.8,2-2.6v-4.8H97v4.7c0,2.5-1.3,3.5-3.1,3.5c-1.7,0-2.9-0.9-2.9-3.5v-4.8    H92.1z"
         id="path3501" /><path
         d="M98.7,454.9c0.5,0.3,1.1,0.5,1.9,0.5c1.1,0,1.7-0.6,1.7-1.4c0-0.7-0.4-1.2-1.5-1.6c-1.3-0.5-2.1-1.2-2.1-2.3    c0-1.3,1-2.2,2.6-2.2c0.8,0,1.4,0.2,1.8,0.4l-0.3,0.9c-0.3-0.2-0.8-0.4-1.5-0.4c-1.1,0-1.5,0.7-1.5,1.2c0,0.8,0.5,1.1,1.6,1.6    c1.4,0.5,2.1,1.2,2.1,2.4c0,1.2-0.9,2.3-2.8,2.3c-0.8,0-1.6-0.2-2.1-0.5L98.7,454.9z"
         id="path3503" /><path
         d="M104.7,448.2c0.5-0.1,1.2-0.2,1.9-0.2c1,0,1.7,0.2,2.2,0.6c0.4,0.3,0.7,0.8,0.7,1.4c0,0.8-0.5,1.5-1.4,1.8v0    c0.8,0.2,1.7,0.8,1.7,2c0,0.7-0.3,1.2-0.7,1.6c-0.6,0.5-1.5,0.8-2.8,0.8c-0.7,0-1.3,0-1.6-0.1V448.2z M105.8,451.5h0.9    c1.1,0,1.7-0.6,1.7-1.4c0-0.9-0.7-1.3-1.8-1.3c-0.5,0-0.8,0-0.9,0.1V451.5z M105.8,455.4c0.2,0,0.5,0,0.9,0c1.1,0,2.1-0.4,2.1-1.6    c0-1.1-0.9-1.6-2.1-1.6h-0.9V455.4z"
         id="path3505" /></g><g
       id="g3507"><path
         d="M172.4,481.6v8.1h-1.1v-8.1H172.4z"
         id="path3509" /><path
         d="M174.1,488.4c0.5,0.3,1.1,0.5,1.9,0.5c1.1,0,1.7-0.6,1.7-1.4c0-0.7-0.4-1.2-1.5-1.6c-1.3-0.5-2.1-1.2-2.1-2.3    c0-1.3,1-2.2,2.6-2.2c0.8,0,1.4,0.2,1.8,0.4l-0.3,0.9c-0.3-0.2-0.8-0.4-1.5-0.4c-1.1,0-1.5,0.7-1.5,1.2c0,0.8,0.5,1.1,1.6,1.6    c1.4,0.5,2.1,1.2,2.1,2.4c0,1.2-0.9,2.3-2.8,2.3c-0.8,0-1.6-0.2-2.1-0.5L174.1,488.4z"
         id="path3511" /><path
         d="M181.4,487.1l-0.8,2.5h-1.1l2.8-8.1h1.2l2.8,8.1h-1.1l-0.9-2.5H181.4z M184.1,486.3l-0.8-2.3c-0.2-0.5-0.3-1-0.4-1.5h0    c-0.1,0.5-0.2,1-0.4,1.5l-0.8,2.3H184.1z"
         id="path3513" /></g><g
       id="g3515"><path
         d="M246.2,481.6v8.1h-1.1v-8.1H246.2z"
         id="path3517" /><path
         d="M248.1,481.7c0.6-0.1,1.4-0.2,2.2-0.2c1.5,0,2.6,0.4,3.3,1c0.7,0.7,1.2,1.6,1.2,2.9c0,1.3-0.4,2.4-1.2,3.1    c-0.8,0.8-2,1.2-3.6,1.2c-0.8,0-1.4,0-1.9-0.1V481.7z M249.1,488.9c0.3,0,0.6,0,1.1,0c2.2,0,3.4-1.2,3.4-3.4    c0-1.9-1.1-3.1-3.3-3.1c-0.5,0-0.9,0-1.2,0.1V488.9z"
         id="path3519" /><path
         d="M260.2,485.9h-3.1v2.9h3.5v0.9H256v-8.1h4.4v0.9h-3.3v2.6h3.1V485.9z"
         id="path3521" /></g><g
       id="g3523"><path
         d="M326.7,450.7c0.5-0.1,1.2-0.2,1.9-0.2c1,0,1.7,0.2,2.2,0.6c0.4,0.3,0.7,0.8,0.7,1.4c0,0.8-0.5,1.5-1.4,1.8v0    c0.8,0.2,1.7,0.8,1.7,2c0,0.7-0.3,1.2-0.7,1.6c-0.6,0.5-1.5,0.8-2.8,0.8c-0.7,0-1.3,0-1.6-0.1V450.7z M327.7,454.1h0.9    c1.1,0,1.7-0.6,1.7-1.4c0-0.9-0.7-1.3-1.8-1.3c-0.5,0-0.8,0-0.9,0.1V454.1z M327.7,457.9c0.2,0,0.5,0,0.9,0c1.1,0,2.1-0.4,2.1-1.6    c0-1.1-0.9-1.6-2.1-1.6h-0.9V457.9z"
         id="path3525" /><path
         d="M334.2,450.6v8.1h-1.1v-8.1H334.2z"
         id="path3527" /><path
         d="M343,454.6c0,2.8-1.7,4.3-3.8,4.3c-2.1,0-3.6-1.7-3.6-4.1c0-2.6,1.6-4.2,3.7-4.2C341.5,450.5,343,452.2,343,454.6z     M336.7,454.7c0,1.7,0.9,3.3,2.6,3.3c1.7,0,2.6-1.5,2.6-3.4c0-1.6-0.8-3.3-2.6-3.3S336.7,452.9,336.7,454.7z"
         id="path3529" /><path
         d="M344.2,457.4c0.5,0.3,1.1,0.5,1.9,0.5c1.1,0,1.7-0.6,1.7-1.4c0-0.7-0.4-1.2-1.5-1.6c-1.3-0.5-2.1-1.2-2.1-2.3    c0-1.3,1-2.2,2.6-2.2c0.8,0,1.4,0.2,1.8,0.4l-0.3,0.9c-0.3-0.2-0.8-0.4-1.5-0.4c-1.1,0-1.5,0.7-1.5,1.2c0,0.8,0.5,1.1,1.6,1.6    c1.4,0.5,2.1,1.2,2.1,2.4c0,1.2-0.9,2.3-2.8,2.3c-0.8,0-1.6-0.2-2.1-0.5L344.2,457.4z"
         id="path3531" /></g><g
       id="g3533"><path
         d="M354.6,383h1.1v7.2h3.5v0.9h-4.5V383z"
         id="path3535" /><path
         d="M360.6,388.4c0,1.4,0.9,2,2,2c0.8,0,1.2-0.1,1.6-0.3l0.2,0.8c-0.4,0.2-1,0.4-1.9,0.4c-1.8,0-2.9-1.2-2.9-2.9    s1-3.1,2.7-3.1c1.9,0,2.4,1.7,2.4,2.7c0,0.2,0,0.4,0,0.5H360.6z M363.7,387.6c0-0.7-0.3-1.7-1.5-1.7c-1.1,0-1.5,1-1.6,1.7H363.7z"
         id="path3537" /><path
         d="M371,390.2c0,1.3-0.3,2.1-0.8,2.7c-0.6,0.5-1.4,0.7-2.1,0.7c-0.7,0-1.5-0.2-1.9-0.5l0.3-0.8c0.4,0.3,1,0.5,1.7,0.5    c1.1,0,1.9-0.6,1.9-2v-0.6h0c-0.3,0.5-0.9,1-1.8,1c-1.4,0-2.5-1.2-2.5-2.8c0-2,1.3-3.1,2.6-3.1c1,0,1.5,0.5,1.8,1h0l0-0.9h0.9    c0,0.4,0,0.9,0,1.6V390.2z M370,387.6c0-0.2,0-0.3-0.1-0.5c-0.2-0.6-0.7-1.1-1.5-1.1c-1,0-1.7,0.9-1.7,2.2c0,1.1,0.6,2.1,1.7,2.1    c0.7,0,1.2-0.4,1.5-1.1c0.1-0.2,0.1-0.4,0.1-0.6V387.6z"
         id="path3539" /><path
         d="M376.8,389.7c0,0.5,0,1,0.1,1.4H376l-0.1-0.7h0c-0.3,0.5-0.9,0.9-1.8,0.9c-1.2,0-1.8-0.8-1.8-1.7c0-1.4,1.2-2.2,3.5-2.2    v-0.1c0-0.5-0.1-1.3-1.3-1.3c-0.6,0-1.1,0.2-1.5,0.4l-0.2-0.7c0.5-0.3,1.2-0.5,1.9-0.5c1.8,0,2.2,1.2,2.2,2.4V389.7z M375.8,388.1    c-1.2,0-2.5,0.2-2.5,1.3c0,0.7,0.5,1,1,1c0.8,0,1.3-0.5,1.4-1c0-0.1,0-0.2,0-0.3V388.1z"
         id="path3541" /><path
         d="M382.7,390.9c-0.3,0.1-0.9,0.3-1.7,0.3c-1.8,0-2.9-1.2-2.9-3c0-1.8,1.2-3.1,3.1-3.1c0.6,0,1.2,0.2,1.5,0.3l-0.2,0.8    c-0.3-0.1-0.6-0.3-1.2-0.3c-1.3,0-2.1,1-2.1,2.2c0,1.3,0.9,2.2,2,2.2c0.6,0,1-0.1,1.3-0.3L382.7,390.9z"
         id="path3543" /><path
         d="M384.5,385.3l1.3,3.4c0.1,0.4,0.3,0.8,0.4,1.2h0c0.1-0.3,0.2-0.8,0.4-1.2l1.2-3.4h1.1l-1.6,4.1c-0.8,2-1.3,3-2,3.6    c-0.5,0.4-1,0.6-1.3,0.7l-0.3-0.9c0.3-0.1,0.6-0.3,0.9-0.5c0.3-0.2,0.6-0.6,0.9-1.2c0-0.1,0.1-0.2,0.1-0.3c0-0.1,0-0.1-0.1-0.3    l-2.1-5.3H384.5z"
         id="path3545" /></g></g>
<text
     xml:space="preserve"
     style="font-family:Sans,Helvetica,Arial;font-size:18px;font-style:normal;font-weight:normal;line-height:125%;letter-spacing:0px;word-spacing:0px;fill:#000000;fill-opacity:1;stroke:none;font-stretch:normal;font-variant:normal"
     x="11.764346"
     y="192.01521"
     id="text3607"
     sodipodi:linespacing="125%"><tspan
       sodipodi:role="line"
       id="tspan3609"
       x="11.764346"
       y="192.01521">PCI-E</tspan></text>
</svg>
